<?xml version="1.0" encoding="UTF-8" standalone="no"?>
<!-- Created with Inkscape (http://www.inkscape.org/) -->

<svg
   xmlns:dc="http://purl.org/dc/elements/1.1/"
   xmlns:cc="http://creativecommons.org/ns#"
   xmlns:rdf="http://www.w3.org/1999/02/22-rdf-syntax-ns#"
   xmlns:svg="http://www.w3.org/2000/svg"
   xmlns="http://www.w3.org/2000/svg"
   xmlns:sodipodi="http://sodipodi.sourceforge.net/DTD/sodipodi-0.dtd"
   xmlns:inkscape="http://www.inkscape.org/namespaces/inkscape"
   width="321.24722mm"
   height="62.976654mm"
   viewBox="0 0 321.24722 62.976654"
   version="1.1"
   id="svg8"
   inkscape:version="0.92.4 5da689c313, 2019-01-14"
   sodipodi:docname="LogoDark.svg">
  <defs
     id="defs2" />
  <sodipodi:namedview
     id="base"
     pagecolor="#ffffff"
     bordercolor="#666666"
     borderopacity="1.0"
     inkscape:pageopacity="0.0"
     inkscape:pageshadow="2"
     inkscape:zoom="0.49497475"
     inkscape:cx="656.83242"
     inkscape:cy="252.07189"
     inkscape:document-units="mm"
     inkscape:current-layer="flowRoot3713"
     showgrid="false"
     inkscape:window-width="1366"
     inkscape:window-height="751"
     inkscape:window-x="0"
     inkscape:window-y="17"
     inkscape:window-maximized="0" />
  <metadata
     id="metadata5">
    <rdf:RDF>
      <cc:Work
         rdf:about="">
        <dc:format>image/svg+xml</dc:format>
        <dc:type
           rdf:resource="http://purl.org/dc/dcmitype/StillImage" />
        <dc:title></dc:title>
      </cc:Work>
    </rdf:RDF>
  </metadata>
  <g
     inkscape:label="Ebene 1"
     inkscape:groupmode="layer"
     id="layer1"
     transform="translate(-1.2077381e-6,-234.02334)">
    <g
       aria-label="01010101110110101110 11101110001111111100 00101010101000100010 "
       transform="matrix(0.26458333,0,0,0.26458333,-100.91964,-174.24702)"
       style="font-style:normal;font-variant:normal;font-weight:normal;font-stretch:normal;font-size:85.33333588px;line-height:1.25;font-family:'DejaVu Sans Mono';-inkscape-font-specification:'DejaVu Sans Mono';text-align:center;letter-spacing:0px;word-spacing:0px;text-anchor:middle;fill:#000000;fill-opacity:1;stroke:none"
       id="flowRoot3713">
      <path
         d="m 381.42857,1601.0104 c 0,4.6933 3.92533,8.6187 8.61866,8.6187 h 25.25867 c 4.608,0 8.61867,-4.0107 8.61867,-8.6187 v -49.3227 c 0,-4.608 -4.01067,-8.6186 -8.61867,-8.6186 h -25.25867 c -4.69333,0 -8.61866,3.9253 -8.61866,8.6186 z m 8.61866,0 v -49.3227 h 25.25867 v 49.3227 z"
         style="font-style:normal;font-variant:normal;font-weight:normal;font-stretch:normal;font-family:OCRA;-inkscape-font-specification:OCRA;fill:#808080;stroke:none;stroke-opacity:1;fill-opacity:1"
         id="path23"
         inkscape:connector-curvature="0" />
      <path
         d="m 443.09523,1605.2771 c 0,2.3893 1.87734,4.352 4.26667,4.352 h 33.87734 c 2.38933,0 4.352,-1.9627 4.352,-4.352 v -21.6747 c 0,-2.3893 -1.96267,-4.352 -4.352,-4.352 -2.38934,0 -4.26667,1.9627 -4.26667,4.352 v 17.408 h -8.36267 v -57.9413 h -21.248 c -2.38933,0 -4.26667,1.9626 -4.26667,4.2666 0,2.3894 1.87734,4.352 4.26667,4.352 h 12.62934 v 49.3227 H 447.3619 c -2.38933,0 -4.26667,1.9627 -4.26667,4.2667 z"
         style="font-style:normal;font-variant:normal;font-weight:normal;font-stretch:normal;font-family:OCRA;-inkscape-font-specification:OCRA;fill:#808080;stroke:none;stroke-opacity:1;fill-opacity:1"
         id="path25"
         inkscape:connector-curvature="0" />
      <path
         d="m 504.7619,1601.0104 c 0,4.6933 3.92534,8.6187 8.61867,8.6187 h 25.25867 c 4.608,0 8.61866,-4.0107 8.61866,-8.6187 v -49.3227 c 0,-4.608 -4.01066,-8.6186 -8.61866,-8.6186 h -25.25867 c -4.69333,0 -8.61867,3.9253 -8.61867,8.6186 z m 8.61867,0 v -49.3227 h 25.25867 v 49.3227 z"
         style="font-style:normal;font-variant:normal;font-weight:normal;font-stretch:normal;font-family:OCRA;-inkscape-font-specification:OCRA;fill:#808080;stroke:none;stroke-opacity:1;fill-opacity:1"
         id="path27"
         inkscape:connector-curvature="0" />
      <path
         d="m 566.42857,1605.2771 c 0,2.3893 1.87733,4.352 4.26666,4.352 h 33.87734 c 2.38933,0 4.352,-1.9627 4.352,-4.352 v -21.6747 c 0,-2.3893 -1.96267,-4.352 -4.352,-4.352 -2.38934,0 -4.26667,1.9627 -4.26667,4.352 v 17.408 h -8.36267 v -57.9413 h -21.248 c -2.38933,0 -4.26666,1.9626 -4.26666,4.2666 0,2.3894 1.87733,4.352 4.26666,4.352 h 12.62934 v 49.3227 h -12.62934 c -2.38933,0 -4.26666,1.9627 -4.26666,4.2667 z"
         style="font-style:normal;font-variant:normal;font-weight:normal;font-stretch:normal;font-family:OCRA;-inkscape-font-specification:OCRA;fill:#808080;stroke:none;stroke-opacity:1;fill-opacity:1"
         id="path29"
         inkscape:connector-curvature="0" />
      <path
         d="m 628.09524,1601.0104 c 0,4.6933 3.92533,8.6187 8.61867,8.6187 h 25.25866 c 4.608,0 8.61867,-4.0107 8.61867,-8.6187 v -49.3227 c 0,-4.608 -4.01067,-8.6186 -8.61867,-8.6186 h -25.25866 c -4.69334,0 -8.61867,3.9253 -8.61867,8.6186 z m 8.61867,0 v -49.3227 h 25.25866 v 49.3227 z"
         style="font-style:normal;font-variant:normal;font-weight:normal;font-stretch:normal;font-family:OCRA;-inkscape-font-specification:OCRA;fill:#808080;stroke:none;stroke-opacity:1;fill-opacity:1"
         id="path31"
         inkscape:connector-curvature="0" />
      <path
         d="m 689.76191,1605.2771 c 0,2.3893 1.87733,4.352 4.26667,4.352 h 33.87733 c 2.38933,0 4.352,-1.9627 4.352,-4.352 v -21.6747 c 0,-2.3893 -1.96267,-4.352 -4.352,-4.352 -2.38933,0 -4.26667,1.9627 -4.26667,4.352 v 17.408 h -8.36266 v -57.9413 h -21.248 c -2.38934,0 -4.26667,1.9626 -4.26667,4.2666 0,2.3894 1.87733,4.352 4.26667,4.352 h 12.62933 v 49.3227 h -12.62933 c -2.38934,0 -4.26667,1.9627 -4.26667,4.2667 z"
         style="font-style:normal;font-variant:normal;font-weight:normal;font-stretch:normal;font-family:OCRA;-inkscape-font-specification:OCRA;fill:#808080;stroke:none;stroke-opacity:1;fill-opacity:1"
         id="path33"
         inkscape:connector-curvature="0" />
      <path
         d="m 751.42857,1601.0104 c 0,4.6933 3.92533,8.6187 8.61866,8.6187 h 25.25867 c 4.608,0 8.61867,-4.0107 8.61867,-8.6187 v -49.3227 c 0,-4.608 -4.01067,-8.6186 -8.61867,-8.6186 h -25.25867 c -4.69333,0 -8.61866,3.9253 -8.61866,8.6186 z m 8.61866,0 v -49.3227 h 25.25867 v 49.3227 z"
         style="font-style:normal;font-variant:normal;font-weight:normal;font-stretch:normal;font-family:OCRA;-inkscape-font-specification:OCRA;fill:#808080;stroke:none;stroke-opacity:1;fill-opacity:1"
         id="path35"
         inkscape:connector-curvature="0" />
      <path
         d="m 813.09525,1605.2771 c 0,2.3893 1.87734,4.352 4.26667,4.352 h 33.87733 c 2.38934,0 4.352,-1.9627 4.352,-4.352 v -21.6747 c 0,-2.3893 -1.96266,-4.352 -4.352,-4.352 -2.38933,0 -4.26666,1.9627 -4.26666,4.352 v 17.408 h -8.36267 v -57.9413 h -21.248 c -2.38933,0 -4.26667,1.9626 -4.26667,4.2666 0,2.3894 1.87734,4.352 4.26667,4.352 h 12.62933 v 49.3227 h -12.62933 c -2.38933,0 -4.26667,1.9627 -4.26667,4.2667 z"
         style="font-style:normal;font-variant:normal;font-weight:normal;font-stretch:normal;font-family:OCRA;-inkscape-font-specification:OCRA;fill:#808080;stroke:none;stroke-opacity:1;fill-opacity:1"
         id="path37"
         inkscape:connector-curvature="0" />
      <path
         d="m 874.76191,1605.2771 c 0,2.3893 1.87733,4.352 4.26667,4.352 h 33.87733 c 2.38933,0 4.352,-1.9627 4.352,-4.352 v -21.6747 c 0,-2.3893 -1.96267,-4.352 -4.352,-4.352 -2.38933,0 -4.26667,1.9627 -4.26667,4.352 v 17.408 h -8.36266 v -57.9413 h -21.248 c -2.38934,0 -4.26667,1.9626 -4.26667,4.2666 0,2.3894 1.87733,4.352 4.26667,4.352 h 12.62933 v 49.3227 h -12.62933 c -2.38934,0 -4.26667,1.9627 -4.26667,4.2667 z"
         style="font-style:normal;font-variant:normal;font-weight:normal;font-stretch:normal;font-family:OCRA;-inkscape-font-specification:OCRA;fill:#808080;stroke:none;stroke-opacity:1;fill-opacity:1"
         id="path39"
         inkscape:connector-curvature="0" />
      <path
         d="m 936.42857,1605.2771 c 0,2.3893 1.87733,4.352 4.26666,4.352 h 33.87734 c 2.38933,0 4.352,-1.9627 4.352,-4.352 v -21.6747 c 0,-2.3893 -1.96267,-4.352 -4.352,-4.352 -2.38934,0 -4.26667,1.9627 -4.26667,4.352 v 17.408 h -8.36267 v -57.9413 h -21.248 c -2.38933,0 -4.26666,1.9626 -4.26666,4.2666 0,2.3894 1.87733,4.352 4.26666,4.352 h 12.62934 v 49.3227 h -12.62934 c -2.38933,0 -4.26666,1.9627 -4.26666,4.2667 z"
         style="font-style:normal;font-variant:normal;font-weight:normal;font-stretch:normal;font-family:OCRA;-inkscape-font-specification:OCRA;fill:#808080;stroke:none;stroke-opacity:1;fill-opacity:1"
         id="path41"
         inkscape:connector-curvature="0" />
      <path
         d="m 998.09523,1601.0104 c 0,4.6933 3.92537,8.6187 8.61867,8.6187 h 25.2587 c 4.608,0 8.6186,-4.0107 8.6186,-8.6187 v -49.3227 c 0,-4.608 -4.0106,-8.6186 -8.6186,-8.6186 h -25.2587 c -4.6933,0 -8.61867,3.9253 -8.61867,8.6186 z m 8.61867,0 v -49.3227 h 25.2587 v 49.3227 z"
         style="font-style:normal;font-variant:normal;font-weight:normal;font-stretch:normal;font-family:OCRA;-inkscape-font-specification:OCRA;fill:#808080;stroke:none;stroke-opacity:1;fill-opacity:1"
         id="path43"
         inkscape:connector-curvature="0" />
      <path
         d="m 1059.7619,1605.2771 c 0,2.3893 1.8773,4.352 4.2667,4.352 h 33.8773 c 2.3893,0 4.352,-1.9627 4.352,-4.352 v -21.6747 c 0,-2.3893 -1.9627,-4.352 -4.352,-4.352 -2.3893,0 -4.2667,1.9627 -4.2667,4.352 v 17.408 h -8.3626 v -57.9413 h -21.248 c -2.3894,0 -4.2667,1.9626 -4.2667,4.2666 0,2.3894 1.8773,4.352 4.2667,4.352 h 12.6293 v 49.3227 h -12.6293 c -2.3894,0 -4.2667,1.9627 -4.2667,4.2667 z"
         style="font-style:normal;font-variant:normal;font-weight:normal;font-stretch:normal;font-family:OCRA;-inkscape-font-specification:OCRA;fill:#808080;stroke:none;stroke-opacity:1;fill-opacity:1"
         id="path45"
         inkscape:connector-curvature="0" />
      <path
         d="m 1121.4285,1605.2771 c 0,2.3893 1.8774,4.352 4.2667,4.352 h 33.8773 c 2.3894,0 4.352,-1.9627 4.352,-4.352 v -21.6747 c 0,-2.3893 -1.9626,-4.352 -4.352,-4.352 -2.3893,0 -4.2666,1.9627 -4.2666,4.352 v 17.408 h -8.3627 v -57.9413 h -21.248 c -2.3893,0 -4.2667,1.9626 -4.2667,4.2666 0,2.3894 1.8774,4.352 4.2667,4.352 h 12.6293 v 49.3227 h -12.6293 c -2.3893,0 -4.2667,1.9627 -4.2667,4.2667 z"
         style="font-style:normal;font-variant:normal;font-weight:normal;font-stretch:normal;font-family:OCRA;-inkscape-font-specification:OCRA;fill:#808080;stroke:none;stroke-opacity:1;fill-opacity:1"
         id="path47"
         inkscape:connector-curvature="0" />
      <path
         d="m 1183.0952,1601.0104 c 0,4.6933 3.9254,8.6187 8.6187,8.6187 h 25.2587 c 4.608,0 8.6186,-4.0107 8.6186,-8.6187 v -49.3227 c 0,-4.608 -4.0106,-8.6186 -8.6186,-8.6186 h -25.2587 c -4.6933,0 -8.6187,3.9253 -8.6187,8.6186 z m 8.6187,0 v -49.3227 h 25.2587 v 49.3227 z"
         style="font-style:normal;font-variant:normal;font-weight:normal;font-stretch:normal;font-family:OCRA;-inkscape-font-specification:OCRA;fill:#808080;stroke:none;stroke-opacity:1;fill-opacity:1"
         id="path49"
         inkscape:connector-curvature="0" />
      <path
         d="m 1244.7619,1605.2771 c 0,2.3893 1.8773,4.352 4.2667,4.352 h 33.8773 c 2.3893,0 4.352,-1.9627 4.352,-4.352 v -21.6747 c 0,-2.3893 -1.9627,-4.352 -4.352,-4.352 -2.3893,0 -4.2667,1.9627 -4.2667,4.352 v 17.408 h -8.3626 v -57.9413 h -21.248 c -2.3894,0 -4.2667,1.9626 -4.2667,4.2666 0,2.3894 1.8773,4.352 4.2667,4.352 h 12.6293 v 49.3227 h -12.6293 c -2.3894,0 -4.2667,1.9627 -4.2667,4.2667 z"
         style="font-style:normal;font-variant:normal;font-weight:normal;font-stretch:normal;font-family:OCRA;-inkscape-font-specification:OCRA;fill:#808080;stroke:none;stroke-opacity:1;fill-opacity:1"
         id="path51"
         inkscape:connector-curvature="0" />
      <path
         d="m 1306.4285,1601.0104 c 0,4.6933 3.9254,8.6187 8.6187,8.6187 h 25.2587 c 4.608,0 8.6186,-4.0107 8.6186,-8.6187 v -49.3227 c 0,-4.608 -4.0106,-8.6186 -8.6186,-8.6186 h -25.2587 c -4.6933,0 -8.6187,3.9253 -8.6187,8.6186 z m 8.6187,0 v -49.3227 h 25.2587 v 49.3227 z"
         style="font-style:normal;font-variant:normal;font-weight:normal;font-stretch:normal;font-family:OCRA;-inkscape-font-specification:OCRA;fill:#808080;stroke:none;stroke-opacity:1;fill-opacity:1"
         id="path53"
         inkscape:connector-curvature="0" />
      <path
         d="m 1368.0952,1605.2771 c 0,2.3893 1.8774,4.352 4.2667,4.352 h 33.8773 c 2.3894,0 4.352,-1.9627 4.352,-4.352 v -21.6747 c 0,-2.3893 -1.9626,-4.352 -4.352,-4.352 -2.3893,0 -4.2666,1.9627 -4.2666,4.352 v 17.408 h -8.3627 v -57.9413 h -21.248 c -2.3893,0 -4.2667,1.9626 -4.2667,4.2666 0,2.3894 1.8774,4.352 4.2667,4.352 h 12.6293 v 49.3227 h -12.6293 c -2.3893,0 -4.2667,1.9627 -4.2667,4.2667 z"
         style="font-style:normal;font-variant:normal;font-weight:normal;font-stretch:normal;font-family:OCRA;-inkscape-font-specification:OCRA;fill:#808080;stroke:none;stroke-opacity:1;fill-opacity:1"
         id="path55"
         inkscape:connector-curvature="0" />
      <path
         d="m 1429.7619,1605.2771 c 0,2.3893 1.8773,4.352 4.2667,4.352 h 33.8773 c 2.3893,0 4.352,-1.9627 4.352,-4.352 v -21.6747 c 0,-2.3893 -1.9627,-4.352 -4.352,-4.352 -2.3893,0 -4.2667,1.9627 -4.2667,4.352 v 17.408 h -8.3626 v -57.9413 h -21.248 c -2.3894,0 -4.2667,1.9626 -4.2667,4.2666 0,2.3894 1.8773,4.352 4.2667,4.352 h 12.6293 v 49.3227 h -12.6293 c -2.3894,0 -4.2667,1.9627 -4.2667,4.2667 z"
         style="font-style:normal;font-variant:normal;font-weight:normal;font-stretch:normal;font-family:OCRA;-inkscape-font-specification:OCRA;fill:#808080;stroke:none;stroke-opacity:1;fill-opacity:1"
         id="path57"
         inkscape:connector-curvature="0" />
      <path
         d="m 1491.4285,1605.2771 c 0,2.3893 1.8774,4.352 4.2667,4.352 h 33.8773 c 2.3894,0 4.352,-1.9627 4.352,-4.352 v -21.6747 c 0,-2.3893 -1.9626,-4.352 -4.352,-4.352 -2.3893,0 -4.2666,1.9627 -4.2666,4.352 v 17.408 h -8.3627 v -57.9413 h -21.248 c -2.3893,0 -4.2667,1.9626 -4.2667,4.2666 0,2.3894 1.8774,4.352 4.2667,4.352 h 12.6293 v 49.3227 h -12.6293 c -2.3893,0 -4.2667,1.9627 -4.2667,4.2667 z"
         style="font-style:normal;font-variant:normal;font-weight:normal;font-stretch:normal;font-family:OCRA;-inkscape-font-specification:OCRA;fill:#808080;stroke:none;stroke-opacity:1;fill-opacity:1"
         id="path59"
         inkscape:connector-curvature="0" />
      <path
         d="m 1553.0953,1601.0104 c 0,4.6933 3.9253,8.6187 8.6187,8.6187 h 25.2586 c 4.608,0 8.6187,-4.0107 8.6187,-8.6187 v -49.3227 c 0,-4.608 -4.0107,-8.6186 -8.6187,-8.6186 h -25.2586 c -4.6934,0 -8.6187,3.9253 -8.6187,8.6186 z m 8.6187,0 v -49.3227 h 25.2586 v 49.3227 z"
         style="font-style:normal;font-variant:normal;font-weight:normal;font-stretch:normal;font-family:OCRA;-inkscape-font-specification:OCRA;fill:#808080;stroke:none;stroke-opacity:1;fill-opacity:1"
         id="path61"
         inkscape:connector-curvature="0" />
      <path
         d="m 381.42857,1691.0081 c 0,2.3894 1.87733,4.352 4.26666,4.352 h 33.87734 c 2.38933,0 4.352,-1.9626 4.352,-4.352 v -21.6746 c 0,-2.3894 -1.96267,-4.352 -4.352,-4.352 -2.38934,0 -4.26667,1.9626 -4.26667,4.352 v 17.408 h -8.36267 v -57.9414 h -21.248 c -2.38933,0 -4.26666,1.9627 -4.26666,4.2667 0,2.3893 1.87733,4.352 4.26666,4.352 h 12.62934 v 49.3227 h -12.62934 c -2.38933,0 -4.26666,1.9626 -4.26666,4.2666 z"
         style="font-style:normal;font-variant:normal;font-weight:normal;font-stretch:normal;font-family:OCRA;-inkscape-font-specification:OCRA;fill:#808080;stroke:none;stroke-opacity:1;fill-opacity:1"
         id="path63"
         inkscape:connector-curvature="0" />
      <path
         d="m 443.09523,1691.0081 c 0,2.3894 1.87734,4.352 4.26667,4.352 h 33.87734 c 2.38933,0 4.352,-1.9626 4.352,-4.352 v -21.6746 c 0,-2.3894 -1.96267,-4.352 -4.352,-4.352 -2.38934,0 -4.26667,1.9626 -4.26667,4.352 v 17.408 h -8.36267 v -57.9414 h -21.248 c -2.38933,0 -4.26667,1.9627 -4.26667,4.2667 0,2.3893 1.87734,4.352 4.26667,4.352 h 12.62934 v 49.3227 H 447.3619 c -2.38933,0 -4.26667,1.9626 -4.26667,4.2666 z"
         style="font-style:normal;font-variant:normal;font-weight:normal;font-stretch:normal;font-family:OCRA;-inkscape-font-specification:OCRA;fill:#808080;stroke:none;stroke-opacity:1;fill-opacity:1"
         id="path65"
         inkscape:connector-curvature="0" />
      <path
         d="m 504.7619,1691.0081 c 0,2.3894 1.87734,4.352 4.26667,4.352 h 33.87733 c 2.38934,0 4.352,-1.9626 4.352,-4.352 v -21.6746 c 0,-2.3894 -1.96266,-4.352 -4.352,-4.352 -2.38933,0 -4.26666,1.9626 -4.26666,4.352 v 17.408 h -8.36267 v -57.9414 h -21.248 c -2.38933,0 -4.26667,1.9627 -4.26667,4.2667 0,2.3893 1.87734,4.352 4.26667,4.352 h 12.62933 v 49.3227 h -12.62933 c -2.38933,0 -4.26667,1.9626 -4.26667,4.2666 z"
         style="font-style:normal;font-variant:normal;font-weight:normal;font-stretch:normal;font-family:OCRA;-inkscape-font-specification:OCRA;fill:#808080;stroke:none;stroke-opacity:1;fill-opacity:1"
         id="path67"
         inkscape:connector-curvature="0" />
      <path
         d="m 566.42857,1686.7415 c 0,4.6933 3.92533,8.6186 8.61866,8.6186 h 25.25867 c 4.608,0 8.61867,-4.0106 8.61867,-8.6186 v -49.3227 c 0,-4.608 -4.01067,-8.6187 -8.61867,-8.6187 h -25.25867 c -4.69333,0 -8.61866,3.9254 -8.61866,8.6187 z m 8.61866,0 v -49.3227 h 25.25867 v 49.3227 z"
         style="font-style:normal;font-variant:normal;font-weight:normal;font-stretch:normal;font-family:OCRA;-inkscape-font-specification:OCRA;fill:#808080;stroke:none;stroke-opacity:1;fill-opacity:1"
         id="path69"
         inkscape:connector-curvature="0" />
      <path
         d="m 628.09524,1691.0081 c 0,2.3894 1.87733,4.352 4.26667,4.352 h 33.87733 c 2.38933,0 4.352,-1.9626 4.352,-4.352 v -21.6746 c 0,-2.3894 -1.96267,-4.352 -4.352,-4.352 -2.38933,0 -4.26667,1.9626 -4.26667,4.352 v 17.408 h -8.36266 v -57.9414 h -21.248 c -2.38934,0 -4.26667,1.9627 -4.26667,4.2667 0,2.3893 1.87733,4.352 4.26667,4.352 h 12.62933 v 49.3227 h -12.62933 c -2.38934,0 -4.26667,1.9626 -4.26667,4.2666 z"
         style="font-style:normal;font-variant:normal;font-weight:normal;font-stretch:normal;font-family:OCRA;-inkscape-font-specification:OCRA;fill:#808080;stroke:none;stroke-opacity:1;fill-opacity:1"
         id="path71"
         inkscape:connector-curvature="0" />
      <path
         d="m 689.76191,1691.0081 c 0,2.3894 1.87733,4.352 4.26667,4.352 h 33.87733 c 2.38933,0 4.352,-1.9626 4.352,-4.352 v -21.6746 c 0,-2.3894 -1.96267,-4.352 -4.352,-4.352 -2.38933,0 -4.26667,1.9626 -4.26667,4.352 v 17.408 h -8.36266 v -57.9414 h -21.248 c -2.38934,0 -4.26667,1.9627 -4.26667,4.2667 0,2.3893 1.87733,4.352 4.26667,4.352 h 12.62933 v 49.3227 h -12.62933 c -2.38934,0 -4.26667,1.9626 -4.26667,4.2666 z"
         style="font-style:normal;font-variant:normal;font-weight:normal;font-stretch:normal;font-family:OCRA;-inkscape-font-specification:OCRA;fill:#808080;stroke:none;stroke-opacity:1;fill-opacity:1"
         id="path73"
         inkscape:connector-curvature="0" />
      <path
         d="m 751.42857,1691.0081 c 0,2.3894 1.87733,4.352 4.26666,4.352 h 33.87734 c 2.38933,0 4.352,-1.9626 4.352,-4.352 v -21.6746 c 0,-2.3894 -1.96267,-4.352 -4.352,-4.352 -2.38934,0 -4.26667,1.9626 -4.26667,4.352 v 17.408 h -8.36267 v -57.9414 h -21.248 c -2.38933,0 -4.26666,1.9627 -4.26666,4.2667 0,2.3893 1.87733,4.352 4.26666,4.352 h 12.62934 v 49.3227 h -12.62934 c -2.38933,0 -4.26666,1.9626 -4.26666,4.2666 z"
         style="font-style:normal;font-variant:normal;font-weight:normal;font-stretch:normal;font-family:OCRA;-inkscape-font-specification:OCRA;fill:#808080;stroke:none;stroke-opacity:1;fill-opacity:1"
         id="path75"
         inkscape:connector-curvature="0" />
      <path
         d="m 813.09525,1686.7415 c 0,4.6933 3.92534,8.6186 8.61867,8.6186 h 25.25867 c 4.608,0 8.61866,-4.0106 8.61866,-8.6186 v -49.3227 c 0,-4.608 -4.01066,-8.6187 -8.61866,-8.6187 h -25.25867 c -4.69333,0 -8.61867,3.9254 -8.61867,8.6187 z m 8.61867,0 v -49.3227 h 25.25867 v 49.3227 z"
         style="font-style:normal;font-variant:normal;font-weight:normal;font-stretch:normal;font-family:OCRA;-inkscape-font-specification:OCRA;fill:#808080;stroke:none;stroke-opacity:1;fill-opacity:1"
         id="path77"
         inkscape:connector-curvature="0" />
      <path
         d="m 874.76191,1686.7415 c 0,4.6933 3.92533,8.6186 8.61867,8.6186 h 25.25866 c 4.608,0 8.61867,-4.0106 8.61867,-8.6186 v -49.3227 c 0,-4.608 -4.01067,-8.6187 -8.61867,-8.6187 h -25.25866 c -4.69334,0 -8.61867,3.9254 -8.61867,8.6187 z m 8.61867,0 v -49.3227 h 25.25866 v 49.3227 z"
         style="font-style:normal;font-variant:normal;font-weight:normal;font-stretch:normal;font-family:OCRA;-inkscape-font-specification:OCRA;fill:#808080;stroke:none;stroke-opacity:1;fill-opacity:1"
         id="path79"
         inkscape:connector-curvature="0" />
      <path
         d="m 936.42857,1686.7415 c 0,4.6933 3.92533,8.6186 8.61866,8.6186 h 25.25867 c 4.608,0 8.61867,-4.0106 8.61867,-8.6186 v -49.3227 c 0,-4.608 -4.01067,-8.6187 -8.61867,-8.6187 h -25.25867 c -4.69333,0 -8.61866,3.9254 -8.61866,8.6187 z m 8.61866,0 v -49.3227 h 25.25867 v 49.3227 z"
         style="font-style:normal;font-variant:normal;font-weight:normal;font-stretch:normal;font-family:OCRA;-inkscape-font-specification:OCRA;fill:#808080;stroke:none;stroke-opacity:1;fill-opacity:1"
         id="path81"
         inkscape:connector-curvature="0" />
      <path
         d="m 998.09523,1691.0081 c 0,2.3894 1.8774,4.352 4.26667,4.352 h 33.8773 c 2.3894,0 4.352,-1.9626 4.352,-4.352 v -21.6746 c 0,-2.3894 -1.9626,-4.352 -4.352,-4.352 -2.3893,0 -4.2666,1.9626 -4.2666,4.352 v 17.408 h -8.3627 v -57.9414 h -21.248 c -2.38927,0 -4.26667,1.9627 -4.26667,4.2667 0,2.3893 1.8774,4.352 4.26667,4.352 h 12.6293 v 49.3227 h -12.6293 c -2.38927,0 -4.26667,1.9626 -4.26667,4.2666 z"
         style="font-style:normal;font-variant:normal;font-weight:normal;font-stretch:normal;font-family:OCRA;-inkscape-font-specification:OCRA;fill:#808080;stroke:none;stroke-opacity:1;fill-opacity:1"
         id="path83"
         inkscape:connector-curvature="0" />
      <path
         d="m 1059.7619,1691.0081 c 0,2.3894 1.8773,4.352 4.2667,4.352 h 33.8773 c 2.3893,0 4.352,-1.9626 4.352,-4.352 v -21.6746 c 0,-2.3894 -1.9627,-4.352 -4.352,-4.352 -2.3893,0 -4.2667,1.9626 -4.2667,4.352 v 17.408 h -8.3626 v -57.9414 h -21.248 c -2.3894,0 -4.2667,1.9627 -4.2667,4.2667 0,2.3893 1.8773,4.352 4.2667,4.352 h 12.6293 v 49.3227 h -12.6293 c -2.3894,0 -4.2667,1.9626 -4.2667,4.2666 z"
         style="font-style:normal;font-variant:normal;font-weight:normal;font-stretch:normal;font-family:OCRA;-inkscape-font-specification:OCRA;fill:#808080;stroke:none;stroke-opacity:1;fill-opacity:1"
         id="path85"
         inkscape:connector-curvature="0" />
      <path
         d="m 1121.4285,1691.0081 c 0,2.3894 1.8774,4.352 4.2667,4.352 h 33.8773 c 2.3894,0 4.352,-1.9626 4.352,-4.352 v -21.6746 c 0,-2.3894 -1.9626,-4.352 -4.352,-4.352 -2.3893,0 -4.2666,1.9626 -4.2666,4.352 v 17.408 h -8.3627 v -57.9414 h -21.248 c -2.3893,0 -4.2667,1.9627 -4.2667,4.2667 0,2.3893 1.8774,4.352 4.2667,4.352 h 12.6293 v 49.3227 h -12.6293 c -2.3893,0 -4.2667,1.9626 -4.2667,4.2666 z"
         style="font-style:normal;font-variant:normal;font-weight:normal;font-stretch:normal;font-family:OCRA;-inkscape-font-specification:OCRA;fill:#808080;stroke:none;stroke-opacity:1;fill-opacity:1"
         id="path87"
         inkscape:connector-curvature="0" />
      <path
         d="m 1183.0952,1691.0081 c 0,2.3894 1.8774,4.352 4.2667,4.352 h 33.8773 c 2.3894,0 4.352,-1.9626 4.352,-4.352 v -21.6746 c 0,-2.3894 -1.9626,-4.352 -4.352,-4.352 -2.3893,0 -4.2666,1.9626 -4.2666,4.352 v 17.408 h -8.3627 v -57.9414 h -21.248 c -2.3893,0 -4.2667,1.9627 -4.2667,4.2667 0,2.3893 1.8774,4.352 4.2667,4.352 h 12.6293 v 49.3227 h -12.6293 c -2.3893,0 -4.2667,1.9626 -4.2667,4.2666 z"
         style="font-style:normal;font-variant:normal;font-weight:normal;font-stretch:normal;font-family:OCRA;-inkscape-font-specification:OCRA;fill:#808080;stroke:none;stroke-opacity:1;fill-opacity:1"
         id="path89"
         inkscape:connector-curvature="0" />
      <path
         d="m 1244.7619,1691.0081 c 0,2.3894 1.8773,4.352 4.2667,4.352 h 33.8773 c 2.3893,0 4.352,-1.9626 4.352,-4.352 v -21.6746 c 0,-2.3894 -1.9627,-4.352 -4.352,-4.352 -2.3893,0 -4.2667,1.9626 -4.2667,4.352 v 17.408 h -8.3626 v -57.9414 h -21.248 c -2.3894,0 -4.2667,1.9627 -4.2667,4.2667 0,2.3893 1.8773,4.352 4.2667,4.352 h 12.6293 v 49.3227 h -12.6293 c -2.3894,0 -4.2667,1.9626 -4.2667,4.2666 z"
         style="font-style:normal;font-variant:normal;font-weight:normal;font-stretch:normal;font-family:OCRA;-inkscape-font-specification:OCRA;fill:#808080;stroke:none;stroke-opacity:1;fill-opacity:1"
         id="path91"
         inkscape:connector-curvature="0" />
      <path
         d="m 1306.4285,1691.0081 c 0,2.3894 1.8774,4.352 4.2667,4.352 h 33.8773 c 2.3894,0 4.352,-1.9626 4.352,-4.352 v -21.6746 c 0,-2.3894 -1.9626,-4.352 -4.352,-4.352 -2.3893,0 -4.2666,1.9626 -4.2666,4.352 v 17.408 h -8.3627 v -57.9414 h -21.248 c -2.3893,0 -4.2667,1.9627 -4.2667,4.2667 0,2.3893 1.8774,4.352 4.2667,4.352 h 12.6293 v 49.3227 h -12.6293 c -2.3893,0 -4.2667,1.9626 -4.2667,4.2666 z"
         style="font-style:normal;font-variant:normal;font-weight:normal;font-stretch:normal;font-family:OCRA;-inkscape-font-specification:OCRA;fill:#808080;stroke:none;stroke-opacity:1;fill-opacity:1"
         id="path93"
         inkscape:connector-curvature="0" />
      <path
         d="m 1368.0952,1691.0081 c 0,2.3894 1.8774,4.352 4.2667,4.352 h 33.8773 c 2.3894,0 4.352,-1.9626 4.352,-4.352 v -21.6746 c 0,-2.3894 -1.9626,-4.352 -4.352,-4.352 -2.3893,0 -4.2666,1.9626 -4.2666,4.352 v 17.408 h -8.3627 v -57.9414 h -21.248 c -2.3893,0 -4.2667,1.9627 -4.2667,4.2667 0,2.3893 1.8774,4.352 4.2667,4.352 h 12.6293 v 49.3227 h -12.6293 c -2.3893,0 -4.2667,1.9626 -4.2667,4.2666 z"
         style="font-style:normal;font-variant:normal;font-weight:normal;font-stretch:normal;font-family:OCRA;-inkscape-font-specification:OCRA;fill:#808080;stroke:none;stroke-opacity:1;fill-opacity:1"
         id="path95"
         inkscape:connector-curvature="0" />
      <path
         d="m 1429.7619,1691.0081 c 0,2.3894 1.8773,4.352 4.2667,4.352 h 33.8773 c 2.3893,0 4.352,-1.9626 4.352,-4.352 v -21.6746 c 0,-2.3894 -1.9627,-4.352 -4.352,-4.352 -2.3893,0 -4.2667,1.9626 -4.2667,4.352 v 17.408 h -8.3626 v -57.9414 h -21.248 c -2.3894,0 -4.2667,1.9627 -4.2667,4.2667 0,2.3893 1.8773,4.352 4.2667,4.352 h 12.6293 v 49.3227 h -12.6293 c -2.3894,0 -4.2667,1.9626 -4.2667,4.2666 z"
         style="font-style:normal;font-variant:normal;font-weight:normal;font-stretch:normal;font-family:OCRA;-inkscape-font-specification:OCRA;fill:#808080;stroke:none;stroke-opacity:1;fill-opacity:1"
         id="path97"
         inkscape:connector-curvature="0" />
      <path
         d="m 1491.4285,1686.7415 c 0,4.6933 3.9254,8.6186 8.6187,8.6186 h 25.2587 c 4.608,0 8.6186,-4.0106 8.6186,-8.6186 v -49.3227 c 0,-4.608 -4.0106,-8.6187 -8.6186,-8.6187 h -25.2587 c -4.6933,0 -8.6187,3.9254 -8.6187,8.6187 z m 8.6187,0 v -49.3227 h 25.2587 v 49.3227 z"
         style="font-style:normal;font-variant:normal;font-weight:normal;font-stretch:normal;font-family:OCRA;-inkscape-font-specification:OCRA;fill:#808080;stroke:none;stroke-opacity:1;fill-opacity:1"
         id="path99"
         inkscape:connector-curvature="0" />
      <path
         d="m 1553.0953,1686.7415 c 0,4.6933 3.9253,8.6186 8.6187,8.6186 h 25.2586 c 4.608,0 8.6187,-4.0106 8.6187,-8.6186 v -49.3227 c 0,-4.608 -4.0107,-8.6187 -8.6187,-8.6187 h -25.2586 c -4.6934,0 -8.6187,3.9254 -8.6187,8.6187 z m 8.6187,0 v -49.3227 h 25.2586 v 49.3227 z"
         style="font-style:normal;font-variant:normal;font-weight:normal;font-stretch:normal;font-family:OCRA;-inkscape-font-specification:OCRA;fill:#808080;stroke:none;stroke-opacity:1;fill-opacity:1"
         id="path101"
         inkscape:connector-curvature="0" />
      <path
         d="m 381.42857,1772.4725 c 0,4.6933 3.92533,8.6186 8.61866,8.6186 h 25.25867 c 4.608,0 8.61867,-4.0106 8.61867,-8.6186 v -49.3227 c 0,-4.608 -4.01067,-8.6187 -8.61867,-8.6187 h -25.25867 c -4.69333,0 -8.61866,3.9254 -8.61866,8.6187 z m 8.61866,0 v -49.3227 h 25.25867 v 49.3227 z"
         style="font-style:normal;font-variant:normal;font-weight:normal;font-stretch:normal;font-family:OCRA;-inkscape-font-specification:OCRA;fill:#808080;stroke:none;stroke-opacity:1;fill-opacity:1"
         id="path103"
         inkscape:connector-curvature="0" />
      <path
         d="m 443.09523,1772.4725 c 0,4.6933 3.92534,8.6186 8.61867,8.6186 h 25.25867 c 4.608,0 8.61867,-4.0106 8.61867,-8.6186 v -49.3227 c 0,-4.608 -4.01067,-8.6187 -8.61867,-8.6187 H 451.7139 c -4.69333,0 -8.61867,3.9254 -8.61867,8.6187 z m 8.61867,0 v -49.3227 h 25.25867 v 49.3227 z"
         style="font-style:normal;font-variant:normal;font-weight:normal;font-stretch:normal;font-family:OCRA;-inkscape-font-specification:OCRA;fill:#808080;stroke:none;stroke-opacity:1;fill-opacity:1"
         id="path105"
         inkscape:connector-curvature="0" />
      <path
         d="m 504.7619,1776.7391 c 0,2.3894 1.87734,4.352 4.26667,4.352 h 33.87733 c 2.38934,0 4.352,-1.9626 4.352,-4.352 v -21.6746 c 0,-2.3894 -1.96266,-4.352 -4.352,-4.352 -2.38933,0 -4.26666,1.9626 -4.26666,4.352 v 17.408 h -8.36267 v -57.9414 h -21.248 c -2.38933,0 -4.26667,1.9627 -4.26667,4.2667 0,2.3893 1.87734,4.352 4.26667,4.352 h 12.62933 v 49.3227 h -12.62933 c -2.38933,0 -4.26667,1.9626 -4.26667,4.2666 z"
         style="font-style:normal;font-variant:normal;font-weight:normal;font-stretch:normal;font-family:OCRA;-inkscape-font-specification:OCRA;fill:#808080;stroke:none;stroke-opacity:1;fill-opacity:1"
         id="path107"
         inkscape:connector-curvature="0" />
      <path
         d="m 566.42857,1772.4725 c 0,4.6933 3.92533,8.6186 8.61866,8.6186 h 25.25867 c 4.608,0 8.61867,-4.0106 8.61867,-8.6186 v -49.3227 c 0,-4.608 -4.01067,-8.6187 -8.61867,-8.6187 h -25.25867 c -4.69333,0 -8.61866,3.9254 -8.61866,8.6187 z m 8.61866,0 v -49.3227 h 25.25867 v 49.3227 z"
         style="font-style:normal;font-variant:normal;font-weight:normal;font-stretch:normal;font-family:OCRA;-inkscape-font-specification:OCRA;fill:#808080;stroke:none;stroke-opacity:1;fill-opacity:1"
         id="path109"
         inkscape:connector-curvature="0" />
      <path
         d="m 628.09524,1776.7391 c 0,2.3894 1.87733,4.352 4.26667,4.352 h 33.87733 c 2.38933,0 4.352,-1.9626 4.352,-4.352 v -21.6746 c 0,-2.3894 -1.96267,-4.352 -4.352,-4.352 -2.38933,0 -4.26667,1.9626 -4.26667,4.352 v 17.408 h -8.36266 v -57.9414 h -21.248 c -2.38934,0 -4.26667,1.9627 -4.26667,4.2667 0,2.3893 1.87733,4.352 4.26667,4.352 h 12.62933 v 49.3227 h -12.62933 c -2.38934,0 -4.26667,1.9626 -4.26667,4.2666 z"
         style="font-style:normal;font-variant:normal;font-weight:normal;font-stretch:normal;font-family:OCRA;-inkscape-font-specification:OCRA;fill:#808080;stroke:none;stroke-opacity:1;fill-opacity:1"
         id="path111"
         inkscape:connector-curvature="0" />
      <path
         d="m 689.76191,1772.4725 c 0,4.6933 3.92533,8.6186 8.61867,8.6186 h 25.25866 c 4.608,0 8.61867,-4.0106 8.61867,-8.6186 v -49.3227 c 0,-4.608 -4.01067,-8.6187 -8.61867,-8.6187 h -25.25866 c -4.69334,0 -8.61867,3.9254 -8.61867,8.6187 z m 8.61867,0 v -49.3227 h 25.25866 v 49.3227 z"
         style="font-style:normal;font-variant:normal;font-weight:normal;font-stretch:normal;font-family:OCRA;-inkscape-font-specification:OCRA;fill:#808080;stroke:none;stroke-opacity:1;fill-opacity:1"
         id="path113"
         inkscape:connector-curvature="0" />
      <path
         d="m 751.42857,1776.7391 c 0,2.3894 1.87733,4.352 4.26666,4.352 h 33.87734 c 2.38933,0 4.352,-1.9626 4.352,-4.352 v -21.6746 c 0,-2.3894 -1.96267,-4.352 -4.352,-4.352 -2.38934,0 -4.26667,1.9626 -4.26667,4.352 v 17.408 h -8.36267 v -57.9414 h -21.248 c -2.38933,0 -4.26666,1.9627 -4.26666,4.2667 0,2.3893 1.87733,4.352 4.26666,4.352 h 12.62934 v 49.3227 h -12.62934 c -2.38933,0 -4.26666,1.9626 -4.26666,4.2666 z"
         style="font-style:normal;font-variant:normal;font-weight:normal;font-stretch:normal;font-family:OCRA;-inkscape-font-specification:OCRA;fill:#808080;stroke:none;stroke-opacity:1;fill-opacity:1"
         id="path115"
         inkscape:connector-curvature="0" />
      <path
         d="m 813.09525,1772.4725 c 0,4.6933 3.92534,8.6186 8.61867,8.6186 h 25.25867 c 4.608,0 8.61866,-4.0106 8.61866,-8.6186 v -49.3227 c 0,-4.608 -4.01066,-8.6187 -8.61866,-8.6187 h -25.25867 c -4.69333,0 -8.61867,3.9254 -8.61867,8.6187 z m 8.61867,0 v -49.3227 h 25.25867 v 49.3227 z"
         style="font-style:normal;font-variant:normal;font-weight:normal;font-stretch:normal;font-family:OCRA;-inkscape-font-specification:OCRA;fill:#808080;stroke:none;stroke-opacity:1;fill-opacity:1"
         id="path117"
         inkscape:connector-curvature="0" />
      <path
         d="m 874.76191,1776.7391 c 0,2.3894 1.87733,4.352 4.26667,4.352 h 33.87733 c 2.38933,0 4.352,-1.9626 4.352,-4.352 v -21.6746 c 0,-2.3894 -1.96267,-4.352 -4.352,-4.352 -2.38933,0 -4.26667,1.9626 -4.26667,4.352 v 17.408 h -8.36266 v -57.9414 h -21.248 c -2.38934,0 -4.26667,1.9627 -4.26667,4.2667 0,2.3893 1.87733,4.352 4.26667,4.352 h 12.62933 v 49.3227 h -12.62933 c -2.38934,0 -4.26667,1.9626 -4.26667,4.2666 z"
         style="font-style:normal;font-variant:normal;font-weight:normal;font-stretch:normal;font-family:OCRA;-inkscape-font-specification:OCRA;fill:#808080;stroke:none;stroke-opacity:1;fill-opacity:1"
         id="path119"
         inkscape:connector-curvature="0" />
      <path
         d="m 936.42857,1772.4725 c 0,4.6933 3.92533,8.6186 8.61866,8.6186 h 25.25867 c 4.608,0 8.61867,-4.0106 8.61867,-8.6186 v -49.3227 c 0,-4.608 -4.01067,-8.6187 -8.61867,-8.6187 h -25.25867 c -4.69333,0 -8.61866,3.9254 -8.61866,8.6187 z m 8.61866,0 v -49.3227 h 25.25867 v 49.3227 z"
         style="font-style:normal;font-variant:normal;font-weight:normal;font-stretch:normal;font-family:OCRA;-inkscape-font-specification:OCRA;fill:#808080;stroke:none;stroke-opacity:1;fill-opacity:1"
         id="path121"
         inkscape:connector-curvature="0" />
      <path
         d="m 998.09523,1776.7391 c 0,2.3894 1.8774,4.352 4.26667,4.352 h 33.8773 c 2.3894,0 4.352,-1.9626 4.352,-4.352 v -21.6746 c 0,-2.3894 -1.9626,-4.352 -4.352,-4.352 -2.3893,0 -4.2666,1.9626 -4.2666,4.352 v 17.408 h -8.3627 v -57.9414 h -21.248 c -2.38927,0 -4.26667,1.9627 -4.26667,4.2667 0,2.3893 1.8774,4.352 4.26667,4.352 h 12.6293 v 49.3227 h -12.6293 c -2.38927,0 -4.26667,1.9626 -4.26667,4.2666 z"
         style="font-style:normal;font-variant:normal;font-weight:normal;font-stretch:normal;font-family:OCRA;-inkscape-font-specification:OCRA;fill:#808080;stroke:none;stroke-opacity:1;fill-opacity:1"
         id="path123"
         inkscape:connector-curvature="0" />
      <path
         d="m 1059.7619,1772.4725 c 0,4.6933 3.9253,8.6186 8.6187,8.6186 h 25.2586 c 4.608,0 8.6187,-4.0106 8.6187,-8.6186 v -49.3227 c 0,-4.608 -4.0107,-8.6187 -8.6187,-8.6187 h -25.2586 c -4.6934,0 -8.6187,3.9254 -8.6187,8.6187 z m 8.6187,0 v -49.3227 h 25.2586 v 49.3227 z"
         style="font-style:normal;font-variant:normal;font-weight:normal;font-stretch:normal;font-family:OCRA;-inkscape-font-specification:OCRA;fill:#808080;stroke:none;stroke-opacity:1;fill-opacity:1"
         id="path125"
         inkscape:connector-curvature="0" />
      <path
         d="m 1121.4285,1772.4725 c 0,4.6933 3.9254,8.6186 8.6187,8.6186 h 25.2587 c 4.608,0 8.6186,-4.0106 8.6186,-8.6186 v -49.3227 c 0,-4.608 -4.0106,-8.6187 -8.6186,-8.6187 h -25.2587 c -4.6933,0 -8.6187,3.9254 -8.6187,8.6187 z m 8.6187,0 v -49.3227 h 25.2587 v 49.3227 z"
         style="font-style:normal;font-variant:normal;font-weight:normal;font-stretch:normal;font-family:OCRA;-inkscape-font-specification:OCRA;fill:#808080;stroke:none;stroke-opacity:1;fill-opacity:1"
         id="path127"
         inkscape:connector-curvature="0" />
      <path
         d="m 1183.0952,1772.4725 c 0,4.6933 3.9254,8.6186 8.6187,8.6186 h 25.2587 c 4.608,0 8.6186,-4.0106 8.6186,-8.6186 v -49.3227 c 0,-4.608 -4.0106,-8.6187 -8.6186,-8.6187 h -25.2587 c -4.6933,0 -8.6187,3.9254 -8.6187,8.6187 z m 8.6187,0 v -49.3227 h 25.2587 v 49.3227 z"
         style="font-style:normal;font-variant:normal;font-weight:normal;font-stretch:normal;font-family:OCRA;-inkscape-font-specification:OCRA;fill:#808080;stroke:none;stroke-opacity:1;fill-opacity:1"
         id="path129"
         inkscape:connector-curvature="0" />
      <path
         d="m 1244.7619,1776.7391 c 0,2.3894 1.8773,4.352 4.2667,4.352 h 33.8773 c 2.3893,0 4.352,-1.9626 4.352,-4.352 v -21.6746 c 0,-2.3894 -1.9627,-4.352 -4.352,-4.352 -2.3893,0 -4.2667,1.9626 -4.2667,4.352 v 17.408 h -8.3626 v -57.9414 h -21.248 c -2.3894,0 -4.2667,1.9627 -4.2667,4.2667 0,2.3893 1.8773,4.352 4.2667,4.352 h 12.6293 v 49.3227 h -12.6293 c -2.3894,0 -4.2667,1.9626 -4.2667,4.2666 z"
         style="font-style:normal;font-variant:normal;font-weight:normal;font-stretch:normal;font-family:OCRA;-inkscape-font-specification:OCRA;fill:#808080;stroke:none;stroke-opacity:1;fill-opacity:1"
         id="path131"
         inkscape:connector-curvature="0" />
      <path
         d="m 1306.4285,1772.4725 c 0,4.6933 3.9254,8.6186 8.6187,8.6186 h 25.2587 c 4.608,0 8.6186,-4.0106 8.6186,-8.6186 v -49.3227 c 0,-4.608 -4.0106,-8.6187 -8.6186,-8.6187 h -25.2587 c -4.6933,0 -8.6187,3.9254 -8.6187,8.6187 z m 8.6187,0 v -49.3227 h 25.2587 v 49.3227 z"
         style="font-style:normal;font-variant:normal;font-weight:normal;font-stretch:normal;font-family:OCRA;-inkscape-font-specification:OCRA;fill:#808080;stroke:none;stroke-opacity:1;fill-opacity:1"
         id="path133"
         inkscape:connector-curvature="0" />
      <path
         d="m 1368.0952,1772.4725 c 0,4.6933 3.9254,8.6186 8.6187,8.6186 h 25.2587 c 4.608,0 8.6186,-4.0106 8.6186,-8.6186 v -49.3227 c 0,-4.608 -4.0106,-8.6187 -8.6186,-8.6187 h -25.2587 c -4.6933,0 -8.6187,3.9254 -8.6187,8.6187 z m 8.6187,0 v -49.3227 h 25.2587 v 49.3227 z"
         style="font-style:normal;font-variant:normal;font-weight:normal;font-stretch:normal;font-family:OCRA;-inkscape-font-specification:OCRA;fill:#808080;stroke:none;stroke-opacity:1;fill-opacity:1"
         id="path135"
         inkscape:connector-curvature="0" />
      <path
         d="m 1429.7619,1772.4725 c 0,4.6933 3.9253,8.6186 8.6187,8.6186 h 25.2586 c 4.608,0 8.6187,-4.0106 8.6187,-8.6186 v -49.3227 c 0,-4.608 -4.0107,-8.6187 -8.6187,-8.6187 h -25.2586 c -4.6934,0 -8.6187,3.9254 -8.6187,8.6187 z m 8.6187,0 v -49.3227 h 25.2586 v 49.3227 z"
         style="font-style:normal;font-variant:normal;font-weight:normal;font-stretch:normal;font-family:OCRA;-inkscape-font-specification:OCRA;fill:#808080;stroke:none;stroke-opacity:1;fill-opacity:1"
         id="path137"
         inkscape:connector-curvature="0" />
      <path
         d="m 1491.4285,1776.7391 c 0,2.3894 1.8774,4.352 4.2667,4.352 h 33.8773 c 2.3894,0 4.352,-1.9626 4.352,-4.352 v -21.6746 c 0,-2.3894 -1.9626,-4.352 -4.352,-4.352 -2.3893,0 -4.2666,1.9626 -4.2666,4.352 v 17.408 h -8.3627 v -57.9414 h -21.248 c -2.3893,0 -4.2667,1.9627 -4.2667,4.2667 0,2.3893 1.8774,4.352 4.2667,4.352 h 12.6293 v 49.3227 h -12.6293 c -2.3893,0 -4.2667,1.9626 -4.2667,4.2666 z"
         style="font-style:normal;font-variant:normal;font-weight:normal;font-stretch:normal;font-family:OCRA;-inkscape-font-specification:OCRA;fill:#808080;stroke:none;stroke-opacity:1;fill-opacity:1"
         id="path139"
         inkscape:connector-curvature="0" />
      <path
         d="m 1553.0953,1772.4725 c 0,4.6933 3.9253,8.6186 8.6187,8.6186 h 25.2586 c 4.608,0 8.6187,-4.0106 8.6187,-8.6186 v -49.3227 c 0,-4.608 -4.0107,-8.6187 -8.6187,-8.6187 h -25.2586 c -4.6934,0 -8.6187,3.9254 -8.6187,8.6187 z m 8.6187,0 v -49.3227 h 25.2586 v 49.3227 z"
         style="font-style:normal;font-variant:normal;font-weight:normal;font-stretch:normal;font-family:OCRA;-inkscape-font-specification:OCRA;fill:#808080;stroke:none;stroke-opacity:1;fill-opacity:1"
         id="path141"
         inkscape:connector-curvature="0" />
      <g
         aria-label="jstsmthrgk"
         transform="translate(272.17695,1550.1276)"
         style="font-style:normal;font-variant:normal;font-weight:normal;font-stretch:normal;font-size:166.66667175px;line-height:1.25;font-family:'DejaVu Sans Mono';-inkscape-font-specification:'DejaVu Sans Mono';text-align:center;letter-spacing:0px;word-spacing:0px;text-anchor:middle;fill:#ffffff;fill-opacity:1;stroke:none"
         id="flowRoot4652">
        <path
           d="m 136.92414,175.61915 v 1.33333 c 1.83333,11.5 12.33333,21.16667 25,21.16667 h 16.33333 c 13.83333,0 25.16667,-11.16667 25.16667,-25 V 76.619143 c 0,-4.666667 -3.83334,-8.500001 -8.5,-8.500001 h -33 c -4.66667,0 -8.5,3.833334 -8.5,8.500001 0,4.666667 3.83333,8.333333 8.5,8.333333 h 24.83333 v 88.166674 c 0,4.5 -4,8.16666 -8.5,8.16666 h -16.33333 c -10.33334,0 -6.5,-14.16666 -16.5,-14.16666 -4.66667,0 -8.5,3.83333 -8.5,8.5 z M 178.25747,41.119142 c 0,4.666666 3.83333,8.5 8.5,8.5 h 8.16667 c 4.66666,0 8.5,-3.833334 8.5,-8.5 v -7.000001 c 0,-4.666666 -3.83334,-8.333333 -8.5,-8.333333 h -8.16667 c -4.66667,0 -8.5,3.666667 -8.5,8.333333 z"
           style="font-style:normal;font-variant:normal;font-weight:normal;font-stretch:normal;font-size:166.66667175px;font-family:OCRA;-inkscape-font-specification:OCRA;fill:#ffffff;fill-opacity:1"
           id="path4660" />
        <path
           d="m 249.20018,147.28581 c 0,2.66667 1.16667,5 3.16667,6.66667 5.5,4.66667 12.5,8.83333 22.5,8.83333 h 31.5 c 14,0 25.5,-11.33333 25.66667,-25.33333 v -0.33334 c 0,-10.83333 -7.33334,-19.83333 -15.16667,-23.33333 l -46.33334,-20 c -1.83333,-0.666667 -2.66666,-2.333334 -2.66666,-4 0,-2.333334 1.66666,-4.833334 4.66666,-4.833334 h 35.66667 c 6.16667,0 7.66667,7.166667 13.66667,7.166667 4.66667,0 8.5,-3.833333 8.5,-8.5 0,-1.833333 -0.66667,-3.666667 -1.66667,-5 -4.16666,-5.5 -11.66666,-10.500001 -20.5,-10.500001 h -35.66667 c -5.66666,0 -11.16666,2.333334 -15.16666,6.333334 -4.33334,4.166667 -6.16667,9.333334 -6.16667,14.5 0,8.500001 5,16.833334 12.66667,20.166664 l 46.16667,20 c 3.33333,1.5 4.83333,4.66667 4.83333,7.83334 0,4.5 -2.83333,9 -8.5,9 h -33.83334 c -1.16666,0 -3.16666,-1.33334 -4.33333,-1.66667 -4.16667,-1.16667 -5.5,-5.33333 -10.83333,-5.33333 -4.66667,0 -8.16667,3.66666 -8.16667,8.33333 z"
           style="font-style:normal;font-variant:normal;font-weight:normal;font-stretch:normal;font-size:166.66667175px;font-family:OCRA;-inkscape-font-specification:OCRA;fill:#ffffff;fill-opacity:1"
           id="path4662" />
        <path
           d="m 369.64289,76.619143 c 0,4.666667 3.66667,8.333333 8.33333,8.333333 h 8.16667 v 52.833334 c 0,13.5 11.33334,25 24.83334,25 h 16.66666 c 12.5,0 22.83334,-9.83333 25,-21.16667 v -1.33333 c 0,-4.66667 -3.83333,-8.5 -8.5,-8.5 -10.16666,0 -6.33333,14.16667 -16.5,14.16667 h -16.66666 c -4.33334,0 -8,-3.66667 -8,-8.16667 V 84.952476 h 32.83333 c 4.66667,0 8.33333,-3.666666 8.33333,-8.333333 0,-4.666667 -3.66666,-8.500001 -8.33333,-8.500001 H 402.97623 V 48.285809 c 0,-4.666667 -3.83334,-8.500001 -8.5,-8.500001 -4.66667,0 -8.33334,3.833334 -8.33334,8.500001 v 19.833333 h -8.16667 c -4.66666,0 -8.33333,3.833334 -8.33333,8.500001 z"
           style="font-style:normal;font-variant:normal;font-weight:normal;font-stretch:normal;font-size:166.66667175px;font-family:OCRA;-inkscape-font-specification:OCRA;fill:#ffffff;fill-opacity:1"
           id="path4664" />
        <path
           d="m 490.08559,147.28581 c 0,2.66667 1.16667,5 3.16667,6.66667 5.5,4.66667 12.5,8.83333 22.5,8.83333 h 31.5 c 14,0 25.5,-11.33333 25.66667,-25.33333 v -0.33334 c 0,-10.83333 -7.33333,-19.83333 -15.16667,-23.33333 l -46.33333,-20 c -1.83334,-0.666667 -2.66667,-2.333334 -2.66667,-4 0,-2.333334 1.66667,-4.833334 4.66667,-4.833334 h 35.66667 c 6.16666,0 7.66666,7.166667 13.66666,7.166667 4.66667,0 8.5,-3.833333 8.5,-8.5 0,-1.833333 -0.66666,-3.666667 -1.66666,-5 -4.16667,-5.5 -11.66667,-10.500001 -20.5,-10.500001 h -35.66667 c -5.66667,0 -11.16667,2.333334 -15.16667,6.333334 -4.33333,4.166667 -6.16667,9.333334 -6.16667,14.5 0,8.500001 5,16.833334 12.66667,20.166664 l 46.16667,20 c 3.33333,1.5 4.83333,4.66667 4.83333,7.83334 0,4.5 -2.83333,9 -8.5,9 h -33.83333 c -1.16667,0 -3.16667,-1.33334 -4.33334,-1.66667 -4.16666,-1.16667 -5.5,-5.33333 -10.83333,-5.33333 -4.66667,0 -8.16667,3.66666 -8.16667,8.33333 z"
           style="font-style:normal;font-variant:normal;font-weight:normal;font-stretch:normal;font-size:166.66667175px;font-family:OCRA;-inkscape-font-specification:OCRA;fill:#ffffff;fill-opacity:1"
           id="path4666" />
        <path
           d="m 609.19498,154.28581 c 0,4.66667 3.66667,8.5 8.33333,8.5 4.66667,0 8.5,-3.83333 8.5,-8.5 v -58.5 l 12.5,-10.833334 h 1.33334 c 2.33333,0 3.66666,1.333334 3.66666,3.666667 v 65.666667 c 0,4.66667 3.83334,8.5 8.5,8.5 4.5,0 8.33334,-3.83333 8.33334,-8.5 V 94.619143 l 11.33333,-9.666667 h 1 c 1.66667,0 2.66667,1.833334 2.83333,3.166667 l 2.33334,66.500007 c 0.16666,4.5 4,8.16666 8.5,8.16666 4.66667,0 8.33333,-3.83333 8.33333,-8.5 l -2.5,-66.833334 c -0.33333,-10.666667 -9.83333,-18.833334 -20,-18.833334 -4.16667,0 -8.66667,1.333334 -12.5,4.500001 l -3.66667,3 c -3.66666,-4.833334 -9.66666,-8.000001 -16.16666,-8.000001 -6.16667,0 -10.83334,2.833334 -14.33334,5.833334 -1,-3.333333 -4.33333,-5.833334 -8,-5.833334 -4.66666,0 -8.33333,3.833334 -8.33333,8.500001 z"
           style="font-style:normal;font-variant:normal;font-weight:normal;font-stretch:normal;font-size:166.66667175px;font-family:OCRA;-inkscape-font-specification:OCRA;fill:#ffffff;fill-opacity:1"
           id="path4668" />
        <path
           d="m 730.97103,76.619143 c 0,4.666667 3.66667,8.333333 8.33333,8.333333 h 8.16667 v 52.833334 c 0,13.5 11.33334,25 24.83334,25 h 16.66666 c 12.5,0 22.83334,-9.83333 25,-21.16667 v -1.33333 c 0,-4.66667 -3.83333,-8.5 -8.5,-8.5 -10.16666,0 -6.33333,14.16667 -16.5,14.16667 h -16.66666 c -4.33334,0 -8,-3.66667 -8,-8.16667 V 84.952476 h 32.83333 c 4.66667,0 8.33333,-3.666666 8.33333,-8.333333 0,-4.666667 -3.66666,-8.500001 -8.33333,-8.500001 H 764.30437 V 48.285809 c 0,-4.666667 -3.83334,-8.500001 -8.5,-8.500001 -4.66667,0 -8.33334,3.833334 -8.33334,8.500001 v 19.833333 h -8.16667 c -4.66666,0 -8.33333,3.833334 -8.33333,8.500001 z"
           style="font-style:normal;font-variant:normal;font-weight:normal;font-stretch:normal;font-size:166.66667175px;font-family:OCRA;-inkscape-font-specification:OCRA;fill:#ffffff;fill-opacity:1"
           id="path4670" />
        <path
           d="m 851.41372,154.28581 c 0,4.66667 3.66667,8.5 8.33333,8.5 4.66667,0 8.5,-3.83333 8.5,-8.5 v -51.83333 l 27.16667,-17.500004 h 11.83333 c 4.5,0 7.83334,3.666667 8.16667,7.833334 l 2.16667,61.83334 c 0,4.5 3.83333,8.16666 8.33333,8.16666 4.66667,0 8.33334,-3.83333 8.33334,-8.5 l -2.00001,-62 c -0.5,-13.166667 -11.33333,-24.166668 -25,-24.166668 h -9.5 c -5.5,0 -9.83333,1.666667 -13.5,4.000001 l -16,10.166667 V 41.119142 c 0,-4.500001 -3.83333,-8.333334 -8.5,-8.333334 -4.66666,0 -8.33333,3.833333 -8.33333,8.333334 z"
           style="font-style:normal;font-variant:normal;font-weight:normal;font-stretch:normal;font-size:166.66667175px;font-family:OCRA;-inkscape-font-specification:OCRA;fill:#ffffff;fill-opacity:1"
           id="path4672" />
        <path
           d="m 971.85647,154.28581 c 0,4.66667 3.66666,8.5 8.33333,8.5 4.66667,0 8.5,-3.83333 8.5,-8.5 v -45.5 l 27.6667,-23.833334 h 13.5 c 4.5,0 8.1666,3.833334 8.1666,8.166667 v 4.666667 c 0,4.66667 3.6667,8.33333 8.3334,8.33333 4.6666,0 8.5,-3.66666 8.5,-8.33333 v -4.666667 c 0,-13.666667 -11.5,-25.000001 -25,-25.000001 h -16.5 c -1.6667,0 -3.5,0.333334 -4.8334,1.333334 l -19.8333,17 v -9.833333 c 0,-4.666667 -3.83333,-8.500001 -8.5,-8.500001 -4.66667,0 -8.33333,3.833334 -8.33333,8.500001 z"
           style="font-style:normal;font-variant:normal;font-weight:normal;font-stretch:normal;font-size:166.66667175px;font-family:OCRA;-inkscape-font-specification:OCRA;fill:#ffffff;fill-opacity:1"
           id="path4674" />
        <path
           d="m 1092.2992,125.45248 c 0,8.5 3.8333,14.83333 8.6666,19 5.8334,5 11.6667,11.33333 22.3334,11.33333 h 12.5 c 10.3333,0 16.8333,-5.83333 22.6666,-11.33333 v 23.5 c 0,2.5 -1.3333,4.83333 -3,6.16667 -3,2.33333 -6.1666,7.16666 -11.3333,7.16666 h -35.1667 c -4.6666,0 -8.5,3.83334 -8.5,8.5 0,4.66667 3.8334,8.33334 8.5,8.33334 h 35.1667 c 6.8333,0 12.3333,-2.66667 16.1667,-6 6.8333,-6 15,-11.66667 15,-24.16667 V 76.619143 c 0,-4.666667 -3.8334,-8.500001 -8.5,-8.500001 -4.6667,0 -8.3334,3.833334 -8.3334,8.500001 v 3 c -6,-5.166667 -11.6666,-11.500001 -22.6666,-11.500001 h -12.5 c -6.8334,0 -12.3334,2.666667 -16.1667,6.000001 -7,5.833333 -14.8333,11.333333 -14.8333,24.166667 z m 16.6666,0 V 98.28581 c 0,-2.833333 1.3334,-4.666667 3,-6.333333 3.3334,-2.333334 5.8334,-7.000001 11.3334,-7.000001 h 12.5 c 2.3333,0 4.1666,0.833334 5.3333,2 l 14.3333,12.333334 c 1.5,1.33333 3,3.66667 3,6.16667 v 13 c 0,2.66666 -1.3333,4.83333 -3,6.16666 l -14.3333,12.33334 c -1.1667,1.16666 -3,2 -5.3333,2 h -12.5 c -5.8334,0 -14.3334,-7.5 -14.3334,-13.5 z"
           style="font-style:normal;font-variant:normal;font-weight:normal;font-stretch:normal;font-size:166.66667175px;font-family:OCRA;-inkscape-font-specification:OCRA;fill:#ffffff;fill-opacity:1"
           id="path4676" />
        <path
           d="m 1212.7418,154.28581 c 0,4.66667 3.6667,8.5 8.3334,8.5 4.6666,0 8.5,-3.83333 8.5,-8.5 v -24.33333 l 8,-7 44.1666,37.83333 c 1.5,1.16667 3.5,2 5.6667,2 4.6667,0 8.3333,-3.83333 8.3333,-8.5 0,-2.5 -1.1666,-4.83333 -3,-6.33333 l -42.1666,-36 33.8333,-29.000004 c 1.8333,-1.5 3,-3.833333 3,-6.333333 0,-4.666667 -3.8333,-8.500001 -8.5,-8.500001 -2,0 -4,0.833334 -5.3333,2.000001 l -44,37.499997 V 41.119142 c 0,-4.500001 -3.8334,-8.333334 -8.5,-8.333334 -4.6667,0 -8.3334,3.833333 -8.3334,8.333334 z"
           style="font-style:normal;font-variant:normal;font-weight:normal;font-stretch:normal;font-size:166.66667175px;font-family:OCRA;-inkscape-font-specification:OCRA;fill:#ffffff;fill-opacity:1"
           id="path4678" />
      </g>
    </g>
  </g>
</svg>
